<svg width="16" height="13" viewBox="0 0 16 13" fill="none" xmlns="http://www.w3.org/2000/svg">
<path d="M8.50075 0.562304C8.50075 1.00302 8.50075 1.44374 8.50075 1.89781C8.76931 1.88232 8.76931 1.88232 9.0433 1.86651C10.6998 1.87529 12.1845 2.41893 13.5089 3.40026C13.6217 3.51841 13.7344 3.63655 13.8506 3.75827C14.3095 4.19425 14.7294 4.18759 15.3452 4.23496C15.533 4.86098 15.533 4.86098 15.3452 5.23659C10.4973 5.23659 5.64943 5.23659 0.654623 5.23659C0.487684 4.56884 0.487684 4.56884 0.654623 4.23496C0.823336 4.22463 0.992048 4.2143 1.16587 4.20366C1.76296 4.13799 2.03655 3.92337 2.47008 3.51503C3.68217 2.37535 5.27359 1.88276 6.92526 1.87695C7.11463 1.88383 7.30401 1.89072 7.49911 1.89781C7.49911 1.4571 7.49911 1.01638 7.49911 0.562304C7.91495 0.354388 8.06851 0.432633 8.50075 0.562304ZM3.65952 4.23496C6.52419 4.23496 9.38886 4.23496 12.3403 4.23496C11.1619 3.05655 9.58561 2.99467 7.99993 2.98292C6.41426 2.99467 4.83793 3.05655 3.65952 4.23496Z" fill="black"/>
<path d="M1.99016 5.90436C2.3207 5.90436 2.65124 5.90436 2.99179 5.90436C2.99423 6.04664 2.99666 6.18893 2.99917 6.33552C3.00939 6.86604 3.02178 7.39646 3.03561 7.9269C3.04114 8.15599 3.04582 8.3851 3.04963 8.61422C3.05526 8.94454 3.06425 9.27481 3.07331 9.60505C3.07768 9.8035 3.08205 10.002 3.08655 10.2064C3.16504 10.7927 3.29869 11.1148 3.65955 11.5803C4.12895 11.7367 4.42266 11.7699 4.9089 11.7741C5.13542 11.7765 5.13542 11.7765 5.36651 11.779C5.61066 11.78 5.61066 11.78 5.85975 11.7811C6.02751 11.7821 6.19527 11.783 6.36811 11.784C6.72314 11.7856 7.07817 11.7867 7.4332 11.7873C7.97582 11.7889 8.51833 11.7941 9.06093 11.7994C9.40589 11.8005 9.75086 11.8014 10.0958 11.802C10.2579 11.8041 10.42 11.8061 10.587 11.8082C11.7164 11.809 11.7164 11.809 12.6742 11.2464C12.8615 10.6846 12.8759 10.2296 12.894 9.63766C12.901 9.42085 12.908 9.20404 12.9152 8.98066C12.9218 8.75167 12.9285 8.52267 12.9351 8.29367C12.9423 8.06271 12.9496 7.83176 12.9569 7.60081C12.9747 7.03534 12.9917 6.46986 13.0081 5.90436C13.3387 5.90436 13.6692 5.90436 14.0098 5.90436C14.0098 6.12472 14.0098 6.34508 14.0098 6.57211C14.4505 6.57211 14.8912 6.57211 15.3453 6.57211C15.5331 7.19813 15.5331 7.19813 15.3453 7.57375C14.9045 7.57375 14.4638 7.57375 14.0098 7.57375C14.015 7.74793 14.015 7.74793 14.0204 7.92564C14.0343 8.4552 14.0429 8.98473 14.0515 9.51441C14.0571 9.69711 14.0627 9.87981 14.0684 10.068C14.0812 11.1205 14.084 11.801 13.342 12.5819C12.8063 12.9186 12.3834 12.9593 11.7562 12.9643C11.5723 12.9664 11.3884 12.9685 11.1989 12.9707C11.001 12.9711 10.8031 12.9715 10.5992 12.9719C10.3951 12.973 10.1909 12.9741 9.98052 12.9752C9.5486 12.9769 9.11667 12.9777 8.68475 12.9777C8.0245 12.9784 7.36444 12.9844 6.70422 12.9908C6.28449 12.9918 5.86475 12.9924 5.44501 12.9927C5.24779 12.9951 5.05056 12.9975 4.84736 13C3.79848 12.9942 3.10169 12.9889 2.32404 12.248C1.94865 11.7254 1.95082 11.2717 1.95755 10.6386C1.95863 10.46 1.95971 10.2814 1.96081 10.0974C1.96361 9.91189 1.96641 9.7264 1.96929 9.53528C1.9708 9.3472 1.9723 9.15912 1.97386 8.96534C1.97779 8.50144 1.98328 8.03761 1.99016 7.57375C1.54944 7.57375 1.10872 7.57375 0.654649 7.57375C0.466842 6.94773 0.466842 6.94773 0.654649 6.57211C1.09537 6.57211 1.53609 6.57211 1.99016 6.57211C1.99016 6.35175 1.99016 6.13139 1.99016 5.90436Z" fill="black"/>
<path d="M8 6.23822V10.2448" stroke="black" stroke-width="1.2"/>
<path d="M5.9967 8.24149H10.0032" stroke="black" stroke-width="1.2"/>
</svg>
